<svg xmlns="http://www.w3.org/2000/svg" height="800" width="1200" viewBox="-36 -22.6369 312 135.8214"><path d="M163.3185 0l1.1418.2463.3508.3955-.097.903-.1567 7.0674-.3956.0522-1.097-2.6941-.3956-2.5374.1492-2.5374m7.1197 13.4482l3.336-2.3956 1.791-.8433 1.7464-1.1493 1.6418-.3955.4478 1.291-1.3508 1.0001-2.9852 2.1941-.9478.1492-1.485.5448-1.3957.2463m2.836 4.2838l.1492-.8434 4.933-.4477 2.8359-.0522 1.2985.3955.7388.2985-.0521.8508-.5448.5448-3.0822.0522-3.2389-.2015-1.9926-.2985m-5.6719 6.3285l.3433-.4478.4478.3433-.0447 1.4478 1.4926 2.9404.694 1.9404.2015.694.0447 2.642-.694.097-1.0448-1.3956-.694.2538-.5-.3508-.0522-1.9926-.2986-.2985-.097-4.3285m-11.2989 1.5373l2.6344-3.1867.8956-.2985.6492.0522-.7015 2.1419-1.5374 3.1866-1.1493 1.1418-.7462.2015-.2985-.2462M143.0492 25.15l2.1493-.8507 4.03-.597 2.1941-.1493.4403-.4478v1.0971l-1.8359 1-4.0896 1.6419-2.433.694-1.097-.7985.0522-1.3433m4.127-13.3512l3.5375-.5448 3.1866 1.0522 2.6419 1.2911.6418.5-.2463.3433-3.1866.0522-2.9927-.5-2.4329-.8956-1.194-.8433m12.5899-.0522l-1.3881 1.4926-.2015 2.0449.2985 1.3955 1.7911 3.7837.5.3956.2986.7015 2.0373 1.1418 2.4404.0522 3.7837-.4478 1.097-.8956.1493-.6492.2985-1-.2538-1.5374-.4925-2.739-2.2389-2.5895-2.3433-1.2464-3.53-.4477zm2.0448 1.8956l3.336.4478.8955.4926 1.194 1.8955.5971 2.336-.194 1.5448-2.1493.5522-2.9852-1.597-1.2388-1.8434-.7986-1.5374.4478-1.6493M2.4255 67.1737c1.9478.9702 5.6195 2.3583 8.8808 2.3583 2.7762 0 4.2315-1.3881 4.2315-3.0523 0-1.6643-1.112-2.8434-4.2315-4.3658-3.8882-1.9479-7.142-4.7912-7.142-9.0227 0-7.0674 6.1718-11.7168 14.9035-11.7168 3.9553 0 7.0748.8359 8.6719 1.7389l-2.3583 7.0748c-1.3807-.6269-3.8136-1.4553-6.7913-1.4553-2.6344 0-4.3732 1.1046-4.3732 2.9777 0 1.3807 1.388 2.5598 4.0896 3.8136 3.7464 1.8657 7.6346 4.642 7.6346 9.3585 0 7.7689-6.5897 12.0004-15.605 11.9332C6.1047 76.7486 2.015 75.6367 0 74.1814m64.7707-32.0458L60.472 65.0244c-.8358 4.2986-1.388 7.9779-1.8732 11.0302h-8.8062l.6194-5.4778-.1343-.0747c-3.4628 4.4404-7.56 6.3136-11.6496 6.3136-5.4778 0-8.7391-3.0523-8.7391-9.5003 0-1.806.209-3.8881.694-6.2464l3.6046-18.9334h9.9854l-3.4628 18.1721c-.2836 1.5225-.485 3.2614-.485 4.5077 0 2.1493.903 3.8881 3.3956 3.8881 3.3956 0 6.933-4.0971 8.1793-10.8212l2.9852-15.7467m9.9107 33.919l4.2987-22.8962c.8358-4.2912 1.3955-7.963 1.806-11.0228h8.8137l-.6269 5.6196h.1343c3.1941-4.3658 7.4256-6.3808 11.8586-6.3808 5.5524 0 8.739 3.4031 8.739 9.2988 0 1.515-.276 4.015-.5522 5.6793l-3.7464 19.702h-9.9854l3.5375-18.799c.209-1.1791.3433-2.5.3433-3.7464 0-2.4254-.8284-4.0822-3.3957-4.0822-3.2613 0-7.0002 4.0822-8.4554 11.575l-2.7763 15.0527m39.658-33.919l.0747 14.4259c.0673 3.8135-.0672 7.0076-.276 10.754h.1342c1.1792-3.612 2.709-7.0077 4.0972-10.4108l6.724-14.769h8.1123l.8358 14.284c.209 4.0225.3433 7.2838.1343 10.8958h.209c1.112-3.7464 2.291-7.0748 3.6717-11.0302l5.8286-14.1497h10.06l-16.508 33.919h-9.3585l-.9776-11.7989c-.2762-3.53-.2762-6.7912-.2762-10.8138h-.209c-1.7985 4.7838-2.5672 7.2838-4.015 10.3362l-5.7614 12.2765h-9.3585l-3.194-33.919m46.1133 33.919l6.4554-33.919h9.9107l-6.3808 33.919m6.3137 0l4.2986-22.8962c.8284-4.2912 1.3881-7.963 1.806-11.0228h8.8063l-.627 5.6196h.1419c3.1866-4.3658 7.418-6.3808 11.8585-6.3808 5.545 0 8.7391 3.4031 8.7391 9.2988-.0076 1.515-.2836 4.015-.5597 5.6793l-3.7464 19.702h-9.9854l3.5374-18.799c.209-1.1791.3508-2.5.3508-3.7464 0-2.4254-.8359-4.0822-3.4031-4.0822-3.2613 0-7.0002 4.0822-8.4555 11.575l-2.7762 15.0527m52.4942-26.4187c-.7612-.3508-2.224-.627-3.6046-.627-6.0375 0-10.3361 6.7242-10.3361 13.105 0 3.4628 1.5299 5.9628 4.5748 5.9628 3.2613 0 6.5225-3.6792 7.6345-9.366zM205.887 80.7712c1.8732 1.1045 5.9629 1.8731 8.8734 1.8731 4.9927 0 8.6719-2.2239 10.1272-9.0226l.5522-2.9106h-.1343c-2.6344 3.4703-5.6867 5.0674-9.7092 5.0674-6.7316 0-10.8213-5.4853-10.8884-12.1422-.0747-11.1645 7.9778-22.2619 22.747-22.2619 4.7837 0 8.9405.903 12.5451 2.3583l-5.127 27.9486c-1.1792 6.2465-3.1195 11.7914-7.142 15.0527-3.6793 2.918-8.6048 3.8136-13.105 3.8136-4.5822 0-8.739-.8284-11.0973-2.1493" fill="#f35c17"/></svg>