<?xml version="1.0" encoding="utf-8"?>
<!-- Generator: Adobe Illustrator 27.1.1, SVG Export Plug-In . SVG Version: 6.00 Build 0)  -->
<svg version="1.1" id="Layer_1" xmlns="http://www.w3.org/2000/svg" xmlns:xlink="http://www.w3.org/1999/xlink" x="0px" y="0px"
	 viewBox="0 0 206.4 82.4" style="enable-background:new 0 0 206.4 82.4;" xml:space="preserve">
<style type="text/css">
	.st0{fill:#00B3F0;}
	.st1{fill:#172B54;}
</style>
<g>
	<path class="st0" d="M22.7,53.3c2-4.9,5.9-11.6,8.3-14.8c-3.3-2.7-9.5-5.6-9.5-5.6s4.9-2.1,14.7-2.6c0,0,4.1-7.9,14.6-15.3
		c-6.4,2-12.4,7.5-18.5,13.4c-7.8,0.4-16.3,3.5-17.2,4c9,4.7,11.2,6.8,11.2,6.8S23.3,47.8,22.7,53.3z"/>
	<path class="st0" d="M62.5,33.3c-7.7-3.1-17.1-3.9-17.1-3.9s-0.2-2.4,0.5-7.1c-0.9,1.9-2.5,6.1-2.8,9.2c6.9,0.5,11.6,2.1,11.6,2.1
		s-7,2.6-10.9,5.7C44.5,41,46.1,46,47,49.9c-1.5-1.4-6-5.1-9.3-7.1c-4.4,1.7-16.4,13.6-23.1,24.6c2.9-3,11.5-12.7,23.1-19.7
		c2.4,1.4,13.4,8.6,13.4,8.6s-2.4-12.8-3.3-15.8C51.2,38.2,57,35,62.5,33.3z"/>
</g>
<path class="st1" d="M148.2,42.7c-1.7-0.5-2.9-0.9-3.4-1.1c-0.4-0.2-0.6-0.6-0.6-1.2c0-0.5,0.3-0.9,0.8-1.2c0.6-0.3,1.5-0.5,2.5-0.5
	c0.9,0,1.9,0.1,2.9,0.3c0.4,0.1,0.8,0.2,1.2,0.3l1.5-3.3l-0.2-0.1c-0.8-0.3-1.6-0.6-2.5-0.8c-0.9-0.2-2-0.3-3.2-0.3
	c-2.7,0-4.8,0.6-6.1,1.7c-1.3,1.2-2,2.6-2,4.3c0,1.6,0.4,3,1.1,4.1c0.7,1,2.1,1.9,4.1,2.4c2.5,0.7,3.4,1.2,3.7,1.5
	c0.4,0.4,0.7,0.9,0.7,1.4c0,0.6-0.3,1.1-1,1.5c-0.7,0.4-1.7,0.6-3.1,0.6c-1.1,0-2.1-0.2-3.2-0.5c-1-0.3-1.8-0.6-2.4-0.9l-0.3-0.2
	l-0.1,0.1h0v4.1l0.1,0.1c0.5,0.3,1.4,0.6,2.5,0.8c1.1,0.2,2.4,0.3,3.8,0.3c3.3,0,5.7-0.7,7.2-1.9c1.5-1.3,2.2-2.9,2.2-4.9
	c0-1.7-0.5-3.1-1.4-4.2C152.2,44.2,150.5,43.3,148.2,42.7 M131,34.9c-1.5,0-2.7,0.2-3.8,0.7l-2.3,4.8l0.1,0.1
	c0.2-0.2,0.5-0.3,0.7-0.4c0.7-0.3,1.4-0.4,2.3-0.4c0.6,0,1.1,0.2,1.5,0.5c0.4,0.3,0.6,1,0.6,1.9V56h6.5V41.6c0-2.5-0.5-4.2-1.5-5.2
	C134.1,35.4,132.7,34.9,131,34.9 M167.2,34.9c-1.7,0-3.2,0.1-4.4,0.4c-0.4,0.1-0.9,0.2-1.3,0.3l-2.2,4.6l0.1,0.1l0.3-0.2
	c0.7-0.4,1.6-0.7,2.6-1c1-0.3,2.1-0.4,3.4-0.4c1.1,0,2,0.2,2.6,0.7c0.6,0.4,0.9,0.9,0.9,1.6v1.5c-0.4-0.2-0.8-0.4-1.4-0.6
	c-0.8-0.2-1.7-0.4-2.5-0.4c-2.8,0-5,0.6-6.7,1.9c-1.7,1.3-2.5,3.1-2.5,5.4v0.4c0,2.3,0.6,4.1,1.9,5.3c1.3,1.2,3.1,1.8,5.5,1.8
	c1,0,1.9-0.1,2.8-0.4l1.9-4.3l-0.1-0.1c-0.6,0.4-1.3,0.7-2.1,0.7c-1,0-1.8-0.2-2.4-0.6c-0.6-0.4-0.9-1.2-0.9-2.5v-0.5
	c0-1.2,0.3-2.1,0.9-2.6c0.6-0.5,1.4-0.8,2.4-0.8c1.1,0,1.9,0.3,2.5,0.9c0.5,0.6,0.8,1.4,0.8,2.6l0,7.6h6.3V42.6
	c0-2.7-0.7-4.6-2.1-5.9C172.1,35.5,170,34.9,167.2,34.9 M191.3,39v-3.7h-5.6v-6.7h-0.3h-2c0,0-3.8,6.4-3.9,6.8
	c-0.4,0-2.8,0.1-2.8,0.1v3.4h2.5v10.2c0,2.3,0.6,4.1,1.8,5.3c1.2,1.2,2.8,1.9,4.8,1.9c0.9,0,1.8-0.1,2.7-0.2
	c0.9-0.1,1.7-0.3,2.4-0.6l0.2-0.1v-3.7l-0.4,0.1c-0.4,0.1-0.8,0.2-1.2,0.3c-0.4,0.1-0.9,0.1-1.4,0.1c-0.9,0-1.6-0.2-1.9-0.6
	c-0.3-0.4-0.5-1.2-0.5-2.1V39H191.3z M76.5,28.6h-0.3h-2c0,0-3.8,6.4-3.9,6.8c-0.3,0-2.8,0.1-2.8,0.1v3.4h2.5v10.2
	c0,2.3,0.6,4.1,1.8,5.3c1.2,1.2,2.8,1.9,4.8,1.9c0.9,0,1.8-0.1,2.7-0.2c0.9-0.1,1.7-0.3,2.4-0.6l0.2-0.1v-3.7l-0.4,0.1
	c-0.4,0.1-0.8,0.2-1.2,0.3c-0.4,0.1-0.9,0.1-1.4,0.1c-0.9,0-1.6-0.2-1.9-0.6c-0.3-0.4-0.5-1.2-0.5-2.1V39h5.6v-3.7h-5.6V28.6z
	 M96.8,40.5l2.1-4.5l0,0c-0.9-0.7-2.1-1.1-3.6-1.1c-1.3,0-2.4,0.3-3.3,1l-0.1,0.1c-0.6,0.5-1.2,1.1-1.6,1.8c0-0.9-0.1-2.4-0.1-2.4
	h-6.2v20.8h6.5V43c0-1.3,0.7-2.4,1.8-3c0,0,0.1,0,0.1,0c0.6-0.3,1.2-0.5,1.9-0.5l0.1,0c0.8,0,1.6,0.3,2.3,0.8L96.8,40.5z M117.6,56
	h6.5V35.3h-6.5V56z M106.8,34.9c-1.7,0-3.2,0.1-4.4,0.4c-0.4,0.1-0.9,0.2-1.3,0.3l-2.2,4.6l0.1,0.1l0.3-0.2c0.7-0.4,1.6-0.7,2.6-1
	c1-0.3,2.1-0.4,3.4-0.4c1.1,0,2,0.2,2.6,0.7c0.6,0.4,0.9,0.9,0.9,1.6v1.5c-0.4-0.2-0.8-0.4-1.4-0.6c-0.8-0.2-1.7-0.4-2.5-0.4
	c-2.8,0-5,0.6-6.7,1.9c-1.7,1.3-2.5,3.1-2.5,5.4v0.4c0,2.3,0.6,4.1,1.9,5.3c1.3,1.2,3.1,1.8,5.5,1.8c1,0,1.9-0.1,2.8-0.4l1.9-4.3
	l-0.1-0.1c-0.6,0.4-1.3,0.7-2.1,0.7c-1,0-1.8-0.2-2.4-0.6c-0.6-0.4-0.9-1.2-0.9-2.5v-0.5c0-1.2,0.3-2.1,0.9-2.6
	c0.6-0.5,1.4-0.8,2.4-0.8c1.1,0,1.9,0.3,2.5,0.9c0.5,0.6,0.8,1.4,0.8,2.6l0,7.6h6.3V42.6c0-2.7-0.7-4.6-2.1-5.9
	C111.7,35.5,109.6,34.9,106.8,34.9"/>
</svg>
