<?xml version="1.0" encoding="utf-8"?>
<!-- Generator: Adobe Illustrator 28.0.0, SVG Export Plug-In . SVG Version: 6.00 Build 0)  -->
<svg version="1.1" id="Layer_1" xmlns="http://www.w3.org/2000/svg" xmlns:xlink="http://www.w3.org/1999/xlink" x="0px" y="0px"
	 viewBox="0 0 1231.4 398.8" style="enable-background:new 0 0 1231.4 398.8;" xml:space="preserve">
<style type="text/css">
	.st0{fill:#00AAA6;}
	.st1{fill:#003C71;}
</style>
<g>
	<path class="st0" d="M109.8,0.9L89.4,61.8H72.9L52.6,0.9h15.6l9.9,33.8c0.3,0.9,0.6,2.2,1.1,3.9c0.4,1.7,0.8,3.5,1.2,5.3
		c0.4,1.8,0.7,3.4,0.8,4.6c0.2-1.2,0.4-2.7,0.8-4.5c0.4-1.8,0.8-3.6,1.2-5.3c0.4-1.7,0.8-3,1-3.9L94.2,0.9H109.8z"/>
	<path class="st0" d="M150.8,61.8l-3.8-13.1H126l-3.8,13.1h-15.9l20.7-61.2h18.6l21,61.2H150.8z M143.8,36.6l-3.6-12.2
		c-0.3-1-0.7-2.4-1.2-4.1c-0.5-1.7-1-3.5-1.5-5.3c-0.5-1.8-0.9-3.4-1.2-4.6c-0.3,1.3-0.7,2.8-1.1,4.7c-0.5,1.8-0.9,3.6-1.4,5.4
		c-0.5,1.7-0.8,3.1-1.1,4.1l-3.6,12.2H143.8z"/>
	<path class="st0" d="M198.7,12c-4.5,0-8,1.7-10.4,5.2c-2.4,3.4-3.6,8.2-3.6,14.3c0,6.2,1.2,10.9,3.5,14.2c2.3,3.3,6,4.9,10.9,4.9
		c2.6,0,5.1-0.3,7.6-1c2.5-0.7,5.1-1.5,7.9-2.5v12.3c-2.7,1.1-5.4,2-8.1,2.5c-2.7,0.5-5.7,0.8-8.9,0.8c-6.5,0-11.8-1.3-15.9-3.9
		c-4.1-2.6-7.1-6.3-9.1-10.9c-2-4.7-2.9-10.1-2.9-16.4c0-6.1,1.1-11.6,3.4-16.3c2.2-4.7,5.5-8.4,9.9-11.1c4.3-2.7,9.6-4,15.8-4
		c3,0,6.1,0.4,9.2,1.1c3.1,0.7,6.1,1.8,9,3.2l-4.5,11.6c-2.3-1.1-4.6-2-6.8-2.7C203.4,12.4,201.1,12,198.7,12z"/>
	<path class="st0" d="M264.4,61.8l-3.8-13.1h-21.1l-3.8,13.1h-15.9l20.7-61.2h18.6l21,61.2H264.4z M257.4,36.6l-3.6-12.2
		c-0.3-1-0.7-2.4-1.2-4.1c-0.5-1.7-1-3.5-1.5-5.3c-0.5-1.8-0.9-3.4-1.2-4.6c-0.3,1.3-0.7,2.8-1.1,4.7c-0.5,1.8-0.9,3.6-1.4,5.4
		c-0.5,1.7-0.8,3.1-1.1,4.1l-3.6,12.2H257.4z"/>
	<path class="st0" d="M343.3,61.8h-18.8L300,17.2h-0.3c0.1,1.1,0.1,2.5,0.2,4.4c0.1,1.8,0.2,3.8,0.3,5.9c0.1,2.1,0.2,4.2,0.3,6.2
		v28.2h-13V0.9h18.7L330.6,45h0.3c-0.1-1-0.1-2.4-0.2-4.2c-0.1-1.8-0.2-3.7-0.3-5.8c-0.1-2.1-0.1-4.1-0.1-5.9V0.9h13.1V61.8z"/>
	<path class="st0" d="M384.1,12c-4.5,0-8,1.7-10.4,5.2c-2.4,3.4-3.6,8.2-3.6,14.3c0,6.2,1.2,10.9,3.5,14.2c2.3,3.3,6,4.9,10.9,4.9
		c2.6,0,5.1-0.3,7.6-1c2.5-0.7,5.1-1.5,7.9-2.5v12.3c-2.7,1.1-5.4,2-8.1,2.5c-2.7,0.5-5.7,0.8-8.9,0.8c-6.5,0-11.8-1.3-15.9-3.9
		c-4.1-2.6-7.1-6.3-9.1-10.9c-2-4.7-2.9-10.1-2.9-16.4c0-6.1,1.1-11.6,3.4-16.3c2.2-4.7,5.5-8.4,9.9-11.1c4.3-2.7,9.6-4,15.8-4
		c3,0,6.1,0.4,9.2,1.1c3.1,0.7,6.1,1.8,9,3.2L398,15.9c-2.3-1.1-4.6-2-6.8-2.7C388.9,12.4,386.5,12,384.1,12z"/>
	<path class="st0" d="M448.1,61.8h-35.6V0.9h35.6v11.8h-21.1v11.7h19.5v11.8h-19.5v13.7h21.1V61.8z"/>
	<path class="st0" d="M497.6,44.1c0,3.5-0.9,6.6-2.6,9.4c-1.7,2.8-4.3,5-7.7,6.7c-3.4,1.6-7.7,2.4-12.9,2.4c-3.6,0-6.9-0.3-9.7-0.9
		s-5.6-1.6-8.2-2.8V45.7c3.1,1.4,6.2,2.6,9.4,3.6c3.2,1,6.3,1.5,9.3,1.5c2.8,0,4.9-0.5,6.1-1.5c1.2-1,1.8-2.4,1.8-4
		c0-2-1-3.6-2.9-4.8c-2-1.2-4.8-2.6-8.5-4.4c-2.4-1.1-4.7-2.4-7-3.9c-2.2-1.5-4.1-3.3-5.5-5.6c-1.4-2.3-2.1-5.3-2.1-8.9
		c0-5.7,2-10,5.9-13.1c3.9-3,9.2-4.5,15.8-4.5c3.5,0,6.8,0.4,9.9,1.2c3,0.8,6,1.8,8.8,3.1l-4.6,11.3c-2.7-1.2-5.3-2.1-7.6-2.8
		c-2.4-0.7-4.7-1-6.9-1c-2.3,0-4.1,0.5-5.2,1.5c-1.1,1-1.7,2.2-1.7,3.7c0,1.2,0.4,2.2,1.2,3.1c0.8,0.9,2,1.8,3.8,2.7s4,2,6.7,3.3
		c3,1.4,5.6,2.8,7.8,4.4c2.2,1.6,3.8,3.5,5,5.6C497.1,38.3,497.6,41,497.6,44.1z"/>
</g>
<path class="st0" d="M111.1,353.7c0,6.6-1.1,12.4-3.4,17.3c-2.3,4.9-5.9,8.6-10.8,11.1l14.8,16.7H93.4l-10.8-13.7h-0.8
	c-6.7,0-12.2-1.3-16.6-3.9c-4.3-2.6-7.5-6.3-9.6-11c-2.1-4.7-3.1-10.2-3.1-16.6s1-11.8,3.1-16.5c2.1-4.7,5.3-8.3,9.6-10.9
	c4.3-2.6,9.9-3.9,16.6-3.9c6.8,0,12.3,1.3,16.6,3.9c4.3,2.6,7.5,6.2,9.5,10.9C110.1,341.9,111.1,347.4,111.1,353.7z M67.9,353.7
	c0,6,1.1,10.7,3.3,14.1s5.8,5.1,10.7,5.1c5,0,8.6-1.7,10.8-5.1c2.2-3.4,3.2-8.1,3.2-14.1c0-6-1.1-10.7-3.2-14.1
	c-2.1-3.4-5.7-5.2-10.7-5.2s-8.6,1.7-10.8,5.2C69,343.1,67.9,347.8,67.9,353.7z"/>
<path class="st0" d="M172,323.4v38.1c0,4.6-0.9,8.7-2.8,12.2c-1.9,3.6-4.7,6.3-8.6,8.4c-3.8,2-8.6,3-14.4,3
	c-8.2,0-14.5-2.1-18.8-6.3c-4.3-4.2-6.5-10-6.5-17.2v-38.2h14.6V360c0,4.7,0.9,8.1,2.8,10c1.8,2,4.6,2.9,8.2,2.9
	c3.8,0,6.6-1,8.3-3.1c1.7-2.1,2.6-5.4,2.6-9.9v-36.5H172z"/>
<path class="st0" d="M219.9,384.3h-35.6v-60.9h35.6v11.8h-21.1v11.7h19.5v11.8h-19.5v13.7h21.1V384.3z M220.5,304.8v0.9
	c-0.9,0.8-2.1,1.8-3.5,2.9c-1.4,1.1-2.9,2.3-4.6,3.6c-1.6,1.3-3.2,2.4-4.7,3.5c-1.5,1.1-2.8,2-4,2.8h-9.6v-1.1
	c0.9-1.1,2-2.3,3.3-3.8c1.3-1.5,2.6-3,3.8-4.5c1.3-1.6,2.3-3,3.2-4.2H220.5z"/>
<path class="st0" d="M231.6,323.4h20c8.4,0,14.6,1.2,18.6,3.7c4,2.4,6,6.3,6,11.7c0,3.7-0.9,6.7-2.8,9c-1.8,2.3-4.1,3.7-6.7,4.2v0.4
	c1.8,0.5,3.6,1.2,5.2,2.1c1.7,1,3,2.4,4.1,4.4c1,1.9,1.5,4.5,1.5,7.7c0,5.6-2,9.9-6.1,13.1c-4.1,3.1-9.6,4.7-16.7,4.7h-23.2V323.4z
	 M246.1,347.2h6.4c3.2,0,5.5-0.6,6.8-1.7c1.3-1.2,2-2.7,2-4.7c0-3.9-3.1-5.9-9.4-5.9h-5.8V347.2z M246.1,358.3v14.4h7.3
	c3.4,0,5.8-0.7,7.1-2c1.3-1.4,2-3.2,2-5.4c0-2-0.7-3.7-2-5c-1.4-1.3-3.8-2-7.4-2H246.1z"/>
<path class="st0" d="M323,384.3h-35.6v-60.9H323v11.8H302v11.7h19.5v11.8H302v13.7H323V384.3z"/>
<path class="st0" d="M361.3,334.5c-4.5,0-8,1.7-10.4,5.2c-2.4,3.4-3.6,8.2-3.6,14.3c0,6.2,1.2,10.9,3.5,14.2c2.3,3.3,6,4.9,10.9,4.9
	c2.6,0,5.1-0.3,7.6-1c2.5-0.7,5.1-1.5,7.9-2.5v12.3c-2.7,1.1-5.4,2-8.1,2.5c-2.7,0.5-5.7,0.8-8.9,0.8c-6.5,0-11.8-1.3-15.9-3.9
	c-4.1-2.6-7.1-6.3-9.1-10.9c-2-4.7-2.9-10.1-2.9-16.4c0-6.1,1.1-11.6,3.4-16.3c2.2-4.7,5.5-8.4,9.9-11.1c4.3-2.7,9.6-4,15.8-4
	c3,0,6.1,0.4,9.2,1.1s6.1,1.8,9,3.2l-4.5,11.6c-2.3-1.1-4.6-2-6.8-2.7C366,334.9,363.7,334.5,361.3,334.5z"/>
<path class="st1" d="M207.9,118.3l-36.7,94.9l-32.1-94.9H97l9.3,26.1l-29.9,68.9L47,118.3H0l52.6,148.8h29.9c4.2,0,7.9-2.5,9.6-6.1
	l31.9-67l26.1,73.1h30.5c4.4,0,8.2-2.7,9.8-6.5l60.4-142.2H207.9z"/>
<path class="st1" d="M265.6,118.3l-26,148.8h94.8c5.3,0,9.7-3.8,10.5-8.8l3.7-21.3h-59.5l5.4-30.7H343c5.3,0,9.7-3.8,10.5-8.8
	l3.7-21.3h-57.5l4.8-27.8h50.6c5.2,0,9.6-3.8,10.5-8.8l3.8-21.3H265.6z"/>
<path class="st1" d="M426,157.4c0-11,16.6-12.1,22-12.1c8.6,0,19.4,1.3,31.1,5.8c0.9,0.4,2,0.6,3,0.6c4.2,0,7.7-3,8.4-7l3.4-19.7
	c-10-4.4-26.5-9-49.8-9c-40.1,0-63.9,19.5-63.9,44.9c0,44.3,63.9,41.3,63.9,64.4c0,9.5-13.2,13.5-24.5,13.5
	c-20,0-43.5-8.3-50.7-15.9l-6.1,34.7c15.9,7,30.2,11.9,55.9,11.9c29.1,0,72.3-11.3,72.3-46.5C491,177.5,426,179.3,426,157.4"/>
<path class="st1" d="M507.5,118.3l-5.2,30.1h44.2l-20.7,118.7H561c5.2,0,9.6-3.8,10.5-8.8l19.2-109.9h35.3c5.2,0,9.6-3.8,10.5-8.8
	l3.8-21.3H507.5z"/>
<path class="st1" d="M656.6,118.3l-23.3,133.3c-6.2,35.4-26.1,47.7-48,50.8l24.3,28.6c30.7-8.3,59.6-31.9,68-79.5l23.3-133.4
	L656.6,118.3z"/>
<path class="st1" d="M723.4,118.3l-26,148.8h94.8c5.3,0,9.6-3.8,10.5-8.8l3.8-21.3h-59.5l5.4-30.7h48.5c5.3,0,9.6-3.8,10.5-8.8
	l3.8-21.3h-57.5l4.8-27.8h50.6c5.2,0,9.6-3.8,10.5-8.8l3.8-21.3H723.4z"/>
<path class="st1" d="M838,118.3l-5.3,30.1H877l-20.7,118.7h35.3c5.3,0,9.7-3.8,10.5-8.8l19.2-109.9h35.3c5.3,0,9.7-3.8,10.5-8.8
	l3.7-21.3H838z"/>
<path class="st0" d="M1068.5,182.8l-80.1,17.9c4.8-4,5.7-7.4,6-10.2c0.3-2.6,2-29.7,2-29.7s21.9,4.5,27,5.3c4.1,0.6,6.3-1.2,8.7-3.8
	c2.3-2.6,12.9-14.4,12.9-14.4L1068.5,182.8z"/>
<path class="st0" d="M1185.8,112.2l-27.8,50.6l-88.6,19.8l14.5-70.3c0,0,11.6,7.9,15.4,10.5c3.8,2.6,6.6,2.2,11-2
	c4.2-4.1,34.7-35,36.4-36.7c0.3,1.8,4.8,32.7,5.5,36.7c0.9,4.2,3.3,4.6,9.3,2C1167.3,120.2,1184.7,112.6,1185.8,112.2"/>
<path class="st0" d="M1209.3,199.3l7,3.8c0,0-70.2,40.5-72.5,42c-2.5,1.5-6.4,2.7-6.7,9.7c-0.2,7-0.4,16.4-0.4,16.4l-61.5-9.5
	l83.3-98.1l36.1-17.5c0,0,0.8,15,0.9,16.3c0.2,2.6,0.9,4.4,5.4,3.8c5.7-0.7,30.6-5.3,30.6-5.3s-20.2,27.1-22.1,29.7
	C1207.4,193.2,1205.1,197.1,1209.3,199.3"/>
<path class="st1" d="M1117.7,187.6l-43.4,73.8l-24.6,41.8c0,0,4.9-27.2,5.8-32.1c1.3-7.3-4-8.7-9.2-7.8c-5.7,0.9-46.9,7.9-46.9,7.9
	s3.7-4.5,9.3-11.4c7.2-8.8,7.3-12.2,0.3-20.5c-1.3-1.5-30.9-36.5-30.9-36.5l9.2-1L1117.7,187.6z"/>
</svg>
